<?xml version="1.0" encoding="UTF-8"?>
<!-- Generator: Adobe Illustrator 15.0.0, SVG Export Plug-In . SVG Version: 6.00 Build 0)  -->
<!DOCTYPE svg PUBLIC "-//W3C//DTD SVG 1.1//EN" "http://www.w3.org/Graphics/SVG/1.1/DTD/svg11.dtd">
<svg version="1.1" id="Layer_1" xmlns="http://www.w3.org/2000/svg" xmlns:xlink="http://www.w3.org/1999/xlink" x="0px" y="0px" width="249.2px" height="70.6px" viewBox="0 0 249.2 70.6" style="enable-background:new 0 0 249.2 70.6;" xml:space="preserve">
<style type="text/css">
<![CDATA[
	.st0{fill:#333695;}
	.st1{fill:#00B5AF;}
]]>
</style>
<path class="st0" d="M43.6,49.5h1.5v9.7h-1.5v-4.2h-4v4.2h-1.5v-9.7h1.5v4.1h4V49.5z"/>
<path class="st0" d="M51.3,57h1.5c-0.2,1.9-1.8,2.4-2.9,2.4c-1.3,0-3-0.6-3-3v-1.6c0-2.4,1.7-3,3-3c1.3,0,3,0.6,3,3v1.3h-4.5v0.2  c0,1.1,0.6,1.6,1.5,1.6C50.6,58,51.1,57.7,51.3,57z M48.3,54.9L48.3,54.9l3.1,0v0c0-1-0.6-1.6-1.5-1.6  C48.9,53.3,48.3,53.8,48.3,54.9z"/>
<path class="st0" d="M55.8,54.3h-1.5c0.3-1.9,1.8-2.4,2.9-2.4c1.3,0,3,0.6,3,3v4.4h-1.5v-0.7c-0.5,0.6-1.2,0.8-2.1,0.8  c-1.3,0-2.4-0.7-2.4-2.1c0-0.8,0.4-1.8,1.6-2.2c0.9-0.3,1.8-0.3,3-0.4v0c-0.1-0.9-0.7-1.4-1.5-1.4C56.5,53.3,56,53.6,55.8,54.3z   M58.8,56.4V56c-1.3,0.1-2.3,0.2-2.8,0.5c-0.2,0.1-0.3,0.3-0.3,0.7c0,0.6,0.4,0.8,1.2,0.8C57.7,58,58.8,57.7,58.8,56.4z"/>
<path class="st0" d="M63.5,57.2c0,0.5,0.1,0.7,0.7,0.7h0.2v1.4h-0.6c-1.2,0-1.7-0.6-1.7-1.7v-8h1.5V57.2z"/>
<path class="st0" d="M67.6,57.2c0,0.5,0.1,0.7,0.7,0.7h1.1v1.4h-1.5c-1.2,0-1.7-0.6-1.7-1.7v-4.1h-1v-1.4h1v-1.6h1.5v1.6h1.8v1.4  h-1.8V57.2z"/>
<path class="st0" d="M72.3,59.3h-1.5v-9.7h1.5v3.2c0.2-0.4,0.9-0.8,1.7-0.8c1.2,0,2.8,0.8,2.8,3v4.4h-1.5v-4.4  c0-1.1-0.6-1.6-1.5-1.6c-0.9,0-1.5,0.5-1.5,1.6V59.3z"/>
<path class="st0" d="M92.1,49.3h3.8c1.9,0,3,1.1,3,2.8c0,0.8-0.3,1.5-1,2c0.8,0.5,1.2,1.3,1.2,2.2c0,1.7-1,2.8-3,2.8h-4V49.3z   M93.6,50.8v2.6h2.3c0.9,0,1.5-0.5,1.5-1.3c0-0.8-0.6-1.3-1.5-1.3H93.6z M93.6,54.9v2.7h2.5c0.9,0,1.5-0.5,1.5-1.3s-0.6-1.3-1.5-1.3  H93.6z"/>
<path class="st0" d="M102,56.2c0,1.1,0.6,1.6,1.5,1.6s1.5-0.5,1.5-1.6v-4.3h1.5V59H105v-0.7c-0.2,0.4-0.9,0.8-1.7,0.8  c-1.2,0-2.8-0.9-2.8-3v-4.3h1.5V56.2z"/>
<path class="st0" d="M107.8,56.7h1.5c0.1,0.7,0.8,1,1.6,1c0.6,0,1.2-0.2,1.2-0.8c0-0.5-0.4-0.6-0.9-0.8l-1.4-0.3  c-0.9-0.2-1.8-0.8-1.8-2.1c0-1.4,1.1-2.1,2.6-2.1c1.5,0,2.6,0.7,2.8,2.3h-1.5c-0.1-0.6-0.7-0.9-1.3-0.9c-0.4,0-1,0.2-1,0.7  c0,0.4,0.4,0.6,0.8,0.7l1.3,0.3c1.3,0.3,2,0.9,2,2.3c0,1.4-1.1,2.1-2.7,2.1C109.2,59.2,107.9,58.4,107.8,56.7z"/>
<path class="st0" d="M116.5,50.8H115v-1.5h1.5V50.8z M116.5,59H115v-7.2h1.5V59z"/>
<path class="st0" d="M119.9,59h-1.5v-7.2h1.5v0.6c0.2-0.4,0.9-0.8,1.7-0.8c1.2,0,2.8,0.8,2.8,3V59h-1.5v-4.4c0-1.1-0.6-1.6-1.5-1.6  c-0.9,0-1.5,0.5-1.5,1.6V59z"/>
<path class="st0" d="M130.5,56.8h1.5c-0.2,1.9-1.8,2.4-2.9,2.4c-1.3,0-3-0.6-3-3v-1.6c0-2.4,1.7-3,3-3s3,0.6,3,3v1.3h-4.5v0.2  c0,1.1,0.6,1.6,1.5,1.6C129.7,57.8,130.3,57.4,130.5,56.8z M127.5,54.6L127.5,54.6l3.1,0v0c0-1-0.6-1.6-1.5-1.6  C128.1,53.1,127.5,53.6,127.5,54.6z"/>
<path class="st0" d="M133.2,56.7h1.5c0.1,0.7,0.8,1,1.6,1c0.6,0,1.2-0.2,1.2-0.8c0-0.5-0.4-0.6-0.9-0.8l-1.4-0.3  c-0.9-0.2-1.8-0.8-1.8-2.1c0-1.4,1.1-2.1,2.6-2.1c1.5,0,2.6,0.7,2.8,2.3h-1.5c-0.1-0.6-0.7-0.9-1.3-0.9c-0.4,0-1,0.2-1,0.7  c0,0.4,0.4,0.6,0.8,0.7l1.3,0.3c1.3,0.3,2,0.9,2,2.3c0,1.4-1.1,2.1-2.7,2.1C134.6,59.2,133.2,58.4,133.2,56.7z"/>
<path class="st0" d="M139.8,56.7h1.5c0.1,0.7,0.8,1,1.6,1c0.6,0,1.2-0.2,1.2-0.8c0-0.5-0.4-0.6-0.9-0.8l-1.4-0.3  c-0.9-0.2-1.8-0.8-1.8-2.1c0-1.4,1.1-2.1,2.6-2.1c1.5,0,2.6,0.7,2.8,2.3h-1.5c-0.1-0.6-0.7-0.9-1.3-0.9c-0.4,0-1,0.2-1,0.7  c0,0.4,0.4,0.6,0.8,0.7l1.3,0.3c1.3,0.3,2,0.9,2,2.3c0,1.4-1.1,2.1-2.7,2.1C141.2,59.2,139.8,58.4,139.8,56.7z"/>
<path class="st0" d="M167.8,52.3h-1.5c-0.2-1.1-1.1-1.6-2-1.6c-1,0-2,0.6-2,2v3.1c0,1.4,1,2,2,2c1,0,2-0.6,2-2v-0.6h-2v-1.4h3.5v2.1  c0,2.1-1.4,3.4-3.5,3.4s-3.5-1.3-3.5-3.4v-3.1c0-2.1,1.4-3.4,3.5-3.4C166.3,49.2,167.7,50.4,167.8,52.3z"/>
<path class="st0" d="M169.3,54.7c0-2.4,1.7-3,3-3s3,0.6,3,3v1.6c0,2.4-1.7,3-3,3s-3-0.6-3-3V54.7z M173.8,54.7  c0-1.1-0.6-1.6-1.5-1.6c-0.9,0-1.5,0.5-1.5,1.6v1.5c0,1.1,0.6,1.6,1.5,1.6c0.9,0,1.5-0.5,1.5-1.6V54.7z"/>
<path class="st0" d="M181.1,51.9h1.5l-2.6,7.2h-1.4l-2.6-7.2h1.5l1.8,5.1L181.1,51.9z"/>
<path class="st0" d="M187.8,56.8h1.5c-0.2,1.9-1.8,2.4-2.9,2.4c-1.3,0-3-0.6-3-3v-1.6c0-2.4,1.7-3,3-3s3,0.6,3,3V56h-4.5v0.2  c0,1.1,0.6,1.6,1.5,1.6C187.1,57.8,187.6,57.5,187.8,56.8z M184.8,54.7L184.8,54.7l3.1,0v0c0-1-0.6-1.6-1.5-1.6  C185.4,53.1,184.8,53.7,184.8,54.7z"/>
<path class="st0" d="M194,53.2c-0.9,0-1.5,0.5-1.5,1.6v4.3H191v-7.2h1.5v0.7c0.2-0.4,0.9-0.8,1.7-0.8h0.6v1.4H194z"/>
<path class="st0" d="M197.2,59.1h-1.5v-7.2h1.5v0.6c0.2-0.4,0.9-0.8,1.7-0.8c1.2,0,2.8,0.8,2.8,3v4.4h-1.5v-4.4  c0-1.1-0.6-1.6-1.5-1.6c-0.9,0-1.5,0.5-1.5,1.6V59.1z"/>
<path class="st0" d="M209.4,59.1H208v-4.4c0-1.1-0.7-1.6-1.5-1.6c-0.8,0-1.5,0.5-1.5,1.6v4.4h-1.5v-7.2h1.5v0.6  c0.2-0.4,0.9-0.8,1.6-0.8c0.7,0,1.6,0.3,2.1,1c0.5-0.7,1.4-1,2.2-1c1.3,0,2.9,0.8,2.9,3v4.4h-1.5v-4.4c0-1.1-0.7-1.6-1.5-1.6  c-0.8,0-1.5,0.5-1.5,1.6V59.1z"/>
<path class="st0" d="M219.9,56.8h1.5c-0.2,1.9-1.8,2.4-2.9,2.4c-1.3,0-3-0.6-3-3v-1.6c0-2.4,1.7-3,3-3s3,0.6,3,3V56h-4.5v0.2  c0,1.1,0.6,1.6,1.5,1.6C219.1,57.8,219.7,57.5,219.9,56.8z M216.9,54.7L216.9,54.7l3.1,0v0c0-1-0.6-1.6-1.5-1.6  C217.5,53.1,216.9,53.7,216.9,54.7z"/>
<path class="st0" d="M224.5,59.1h-1.5v-7.2h1.5v0.6c0.2-0.4,0.9-0.8,1.7-0.8c1.2,0,2.8,0.8,2.8,3v4.4h-1.5v-4.4  c0-1.1-0.6-1.6-1.5-1.6c-0.9,0-1.5,0.5-1.5,1.6V59.1z"/>
<path class="st0" d="M232.7,57c0,0.5,0.1,0.7,0.7,0.7h1.1v1.4h-1.5c-1.2,0-1.7-0.6-1.7-1.7v-4.1h-1v-1.4h1v-1.6h1.5v1.6h1.8v1.4  h-1.8V57z"/>
<g>
	<path class="st0" d="M42.9,40.2h-4.8V14.6h4.8V40.2z"/>
	<path class="st0" d="M61.9,40.2h-4.7V29.5c0-2.5-1.7-3.6-3.5-3.6s-3.5,1.1-3.5,3.6v10.7h-4.7V21.8h4.7v1.6c0.8-1.2,2.7-2.1,4.3-2.1   c3.7,0,7.4,2.6,7.4,8V40.2z"/>
	<path class="st0" d="M73.8,36v4.2h-4.5c-3.3,0-4.7-1.7-4.7-4.7v-9.4v-4.2v-4.2h4.7v4.2h4.5v4.2h-4.5v8.4c0,0.9,0.2,1.5,1.4,1.5   H73.8z"/>
	<path class="st0" d="M80,32.3v0.1c0,2.2,1.2,3.6,3.5,3.6c1.6,0,2.8-0.8,3.2-2h4.8c-0.7,3.8-3.5,6.3-8,6.3c-5.3,0-8.2-3.4-8.2-8.4   v-2.4c0-5.1,2.9-8.4,8.2-8.4s8.2,3.4,8.2,8.4v2.9H80z M80,28.4L80,28.4l7,0v0c-0.1-1.9-1.4-3.1-3.5-3.1S80.1,26.5,80,28.4z"/>
	<path class="st0" d="M99.1,40.2h-4.7V21.8h4.7v2c0.5-1.2,2.1-2.3,4.3-2.3h1.4v4.6h-2.2c-1.8,0-3.5,1.1-3.5,3.6V40.2z"/>
	<path class="st0" d="M107,32h4.9c0.3,2.1,1.9,3.5,4.3,3.5c2.1,0,3.6-0.8,3.6-2.5c0-1.4-0.8-2.2-2.6-2.6l-4.2-1.1   c-3.8-1-5.7-3.7-5.7-7.4c0-5,3.9-7.3,8.3-7.3c5,0,8.1,2.9,8.6,7.2h-4.9c-0.4-1.7-2.2-2.4-3.8-2.4c-2,0-3.4,0.8-3.4,2.5   c0,1.5,1.1,2.1,2.5,2.5l4.1,1.1c3.8,1,5.9,3.4,5.9,7.6c0,4.5-2.9,7.2-8.3,7.2C110.8,40.2,107.3,36.9,107,32z"/>
	<path class="st0" d="M136,41.9c-1,2.8-1.3,4.8-4.6,4.8h-3.5v-4.2h2c0.9,0,1.1-0.4,1.2-0.8l0.5-1.5l-6.6-18.4h5l4.1,11.7l4.1-11.7h5   L136,41.9z"/>
	<path class="st0" d="M142.8,33.9h4.7c0.2,1.4,1.9,2.1,3.4,2.1c0.9,0,2.3-0.2,2.3-1.4c0-0.7-0.5-1.2-1.6-1.4l-3.8-0.9   c-2-0.5-4.5-2-4.5-5.6c0-3.6,3.2-5.7,7-5.7c3.7,0,6.8,1.8,7.1,6h-4.8c-0.2-1.2-1.3-1.7-2.5-1.7c-1.4,0-2.1,0.5-2.2,1.4   c0,0.8,0.6,1.2,1.4,1.4l4.1,0.9c2,0.5,4.5,1.9,4.5,5.7c0,4.1-3.3,5.7-7.2,5.7C147,40.2,143,38.3,142.8,33.9z"/>
	<path class="st0" d="M175.4,32.3v0.1c0,2.2,1.2,3.6,3.5,3.6c1.6,0,2.8-0.8,3.2-2h4.8c-0.7,3.8-3.5,6.3-8,6.3   c-5.3,0-8.2-3.4-8.2-8.4v-2.4c0-5.1,2.9-8.4,8.2-8.4s8.2,3.4,8.2,8.4v2.9H175.4z M175.4,28.4L175.4,28.4l7,0v0   c-0.1-1.9-1.4-3.1-3.5-3.1S175.6,26.5,175.4,28.4z"/>
	<path class="st0" d="M206,40.2h-4.7V29.5c0-2.5-1.7-3.6-3.4-3.6s-3.4,1.1-3.4,3.6v10.7h-4.7V21.8h4.7v1.5c0.9-1.2,2.6-2,4.2-2   c1.9,0,3.7,0.7,5,2.4c1.3-1.6,3.2-2.4,5.7-2.4c4.7,0,8.1,2.6,8.1,8v10.9h-4.7V29.5c0-2.5-1.7-3.6-3.4-3.6S206,27,206,29.5V40.2z"/>
	<path class="st0" d="M219.3,33.9h4.7c0.2,1.4,1.9,2.1,3.4,2.1c0.9,0,2.3-0.2,2.3-1.4c0-0.7-0.5-1.2-1.6-1.4l-3.8-0.9   c-2-0.5-4.5-2-4.5-5.6c0-3.6,3.2-5.7,7-5.7c3.7,0,6.8,1.8,7.1,6H229c-0.2-1.2-1.3-1.7-2.5-1.7c-1.4,0-2.1,0.5-2.2,1.4   c0,0.8,0.6,1.2,1.4,1.4l4.1,0.9c2,0.5,4.5,1.9,4.5,5.7c0,4.1-3.3,5.7-7.2,5.7C223.4,40.2,219.5,38.3,219.3,33.9z"/>
	<path class="st0" d="M168.7,36v4.2h-4.5c-3.3,0-4.7-1.7-4.7-4.7v-9.4v-4.2v-4.2h4.7v4.2h4.5v4.2h-4.5v8.4c0,0.9,0.2,1.5,1.4,1.5   H168.7z"/>
</g>
<g>
	<path class="st0" d="M239.2,20.9c1.6,0,2.9,1.3,2.9,2.9s-1.3,2.9-2.9,2.9c-1.6,0-2.9-1.3-2.9-2.9S237.6,20.9,239.2,20.9z    M239.2,26.3c1.3,0,2.4-1.1,2.4-2.4s-1.1-2.4-2.4-2.4c-1.3,0-2.4,1.1-2.4,2.4S237.9,26.3,239.2,26.3z M240.6,25.6l-0.9-1.5   c0.5-0.1,0.8-0.4,0.8-1c0-0.6-0.4-1-1.1-1h-1.4v3.4h0.6v-1.4h0.5l0.8,1.4H240.6z M238.6,22.7h0.8c0.3,0,0.5,0.1,0.5,0.4   c0,0.3-0.2,0.4-0.5,0.4h-0.8V22.7z"/>
</g>
<g>
	<polygon class="st0" points="14.4,15.4 7.4,11.9 7.4,56.6 21.5,63.7 21.5,55.8 14.4,52.3  "/>
	<polygon class="st1" points="21.5,55.8 28.5,59.3 28.5,14.6 14.4,7.5 14.4,15.4 21.5,18.9  "/>
</g>
<g>
	<path class="st1" d="M84.9,59.3h-1.1v-9.6h1.1V59.3z"/>
</g>
<g>
	<path class="st1" d="M154,59.2h-1.1v-9.6h1.1V59.2z"/>
</g>
</svg>